<?xml version="1.0" encoding="UTF-8" standalone="no"?>
<!-- Created with Inkscape (http://www.inkscape.org/) -->

<svg
   width="512"
   height="512"
   viewBox="0 0 135.46667 135.46667"
   version="1.1"
   id="svg1"
   xml:space="preserve"
   xmlns="http://www.w3.org/2000/svg"
   xmlns:svg="http://www.w3.org/2000/svg"><defs
     id="defs1" /><g
     id="g1"
     transform="matrix(0.63151391,0,0,0.63151391,1.747483,-7.9974416)"
     style="display:inline;stroke-width:1.5835"><path
       style="display:inline;fill:#ffffff;stroke-width:0.264583"
       d="M 41.13774,119.3297 126.13557,43.255125 V 96.340961 Z"
       id="path4"
       transform="matrix(1.5834964,0,0,1.5834964,-2.767133,12.66392)" /><path
       style="display:inline;fill:#ffffff;stroke-width:0.264583"
       d="M 9.0745018,34.936832 94.374818,15.577894 9.3769851,93.769851 Z"
       id="path1"
       transform="matrix(1.5834964,0,0,1.5834964,-2.767133,12.66392)" /><path
       style="display:inline;fill:#d7c096;fill-opacity:1;stroke-width:1.5835"
       d="m 57.244586,203.77933 c 0.727604,-0.67241 2.68831,-2.48474 4.357125,-4.02741 2.972211,-2.74754 4.013873,-3.70352 8.93684,-8.20173 1.337427,-1.22203 2.368966,-2.32336 2.292308,-2.44739 -0.07666,-0.12404 -11.797616,-0.22552 -26.046572,-0.22552 H 20.877092 l 0.01407,-16.16325 c 0.0077,-8.88979 -0.04738,-16.2247 -0.122484,-16.29981 -0.0751,-0.0751 -2.086893,1.63219 -4.470638,3.79398 -5.271946,4.78108 -5.96575,5.38575 -6.179656,5.38575 -0.09198,0 -0.09452,-22.05284 -0.0056,-49.00632 l 0.161597,-49.006313 5.083115,-1.131992 c 2.795714,-0.622595 5.174552,-1.223428 5.286307,-1.335182 0.111755,-0.111755 0.236876,-2.284751 0.278047,-4.828881 l 0.07486,-4.62569 19.446874,-0.04655 c 19.697559,-0.04715 22.781722,-0.121681 24.209375,-0.585054 0.797142,-0.258729 12.08797,-2.918702 27.119791,-6.389072 4.438386,-1.024682 9.02229,-2.092212 10.18646,-2.372288 9.08117,-2.184755 16.46373,-3.926791 21.29896,-5.025841 4.89621,-1.112911 21.91924,-5.0865 26.52448,-6.191457 0.83674,-0.200764 1.52135,-0.278389 1.52135,-0.1725 0,0.10589 -0.44648,0.59104 -0.99219,1.078113 -1.15886,1.034349 -6.36766,5.81526 -10.49064,9.62885 -1.58612,1.467105 -3.09908,2.855606 -3.36212,3.085558 -0.26303,0.229951 -1.7508,1.59917 -3.30613,3.042708 -1.55534,1.443538 -3.0678,2.833729 -3.36103,3.089314 -0.29323,0.255584 -0.4747,0.523141 -0.40327,0.594571 0.0714,0.07143 12.94926,0.134715 28.61742,0.140635 l 28.48754,0.01076 v 15.99727 c 0,12.973695 0.0652,15.99727 0.34497,15.99727 0.18974,0 0.75529,-0.425966 1.25678,-0.946592 1.13035,-1.173487 10.24792,-9.207061 10.58672,-9.328061 0.15225,-0.05437 0.24695,17.054897 0.24695,44.615434 v 44.70363 l -2.97656,0.81807 c -1.63711,0.44994 -4.16719,1.12093 -5.6224,1.4911 -1.45521,0.37016 -2.91372,0.78823 -3.24115,0.92904 l -0.59531,0.25604 v 9.39838 9.39838 h -34.7583 -34.7583 l -2.61409,0.76937 c -1.43776,0.42315 -7.13847,1.97078 -12.66826,3.43918 -5.529796,1.46839 -12.316359,3.27135 -15.081255,4.00656 -2.764895,0.73522 -7.229739,1.91797 -9.921874,2.62834 -2.692136,0.71038 -6.264011,1.66289 -7.9375,2.11669 -5.057312,1.37141 -12.198746,3.17992 -12.525365,3.17195 -0.16881,-0.004 0.288386,-0.55764 1.01599,-1.23004 z m 16.404166,-6.42969 c 2.764896,-0.72205 6.098646,-1.61331 7.408333,-1.98057 1.309688,-0.36726 4.405313,-1.19628 6.879167,-1.84228 4.345725,-1.13479 13.991018,-3.71755 22.754168,-6.09296 4.82902,-1.30899 15.80688,-4.25324 20.90208,-5.60591 1.89177,-0.50222 4.21349,-1.14467 5.15938,-1.42765 0.94588,-0.28298 5.05354,-1.41333 9.12812,-2.51188 4.07458,-1.09854 9.31333,-2.5247 11.64167,-3.16924 2.32833,-0.64454 5.84067,-1.60569 7.80521,-2.13589 1.96453,-0.5302 4.34578,-1.18215 5.29166,-1.44877 3.47886,-0.98061 6.76788,-1.89761 7.54063,-2.10238 0.43656,-0.11569 3.05593,-0.82451 5.82083,-1.57517 2.7649,-0.75065 6.51537,-1.75359 8.33438,-2.22874 l 3.30729,-0.86392 0.067,-39.99871 c 0.0431,-25.70638 -0.0247,-39.998706 -0.18961,-39.998706 -0.14113,0 -0.83367,0.506016 -1.53898,1.124479 -0.70531,0.618464 -2.10137,1.838854 -3.10237,2.711979 -1.00099,0.873125 -2.42219,2.135328 -3.15822,2.804894 -0.73603,0.669567 -1.81449,1.61744 -2.39657,2.106386 -1.13804,0.955942 -2.38797,2.069778 -6.10059,5.436332 -1.30134,1.18004 -2.84226,2.549256 -3.42426,3.042706 -1.31857,1.11795 -1.20684,1.01859 -3.87031,3.44168 -1.21839,1.10843 -3.35352,3.01343 -4.74472,4.23333 -3.45906,3.03314 -7.03973,6.23269 -10.03825,8.9698 -1.38245,1.26192 -4.06135,3.64846 -5.95312,5.3034 -1.89177,1.65495 -4.0349,3.55912 -4.7625,4.23149 -0.72761,0.67237 -1.91823,1.74777 -2.64584,2.38978 -0.7276,0.64201 -1.38244,1.22702 -1.4552,1.30003 -0.0728,0.073 -0.60855,0.53879 -1.19063,1.03509 -0.58208,0.49629 -2.07036,1.82579 -3.30729,2.95444 -1.23693,1.12865 -2.54661,2.30981 -2.91042,2.62478 -2.86836,2.48341 -19.19486,16.97779 -21.01144,18.6536 -1.2857,1.18607 -6.0957,5.49332 -7.04257,6.30647 -0.65034,0.55851 -1.77946,1.57054 -2.50915,2.24896 -0.72969,0.67843 -2.4561,2.24543 -3.83646,3.48224 -1.380363,1.23681 -2.641226,2.3679 -2.801918,2.51354 -4.135198,3.74787 -5.524784,5.00835 -6.854806,6.21793 -0.880059,0.80036 -2.724077,2.46724 -4.097819,3.70416 -1.373742,1.23693 -3.219344,2.90381 -4.101339,3.70417 -0.881994,0.80037 -2.254774,2.03811 -3.050622,2.75054 -1.906923,1.70706 -5.654663,5.10629 -8.309556,7.53685 -1.173301,1.07416 -2.460696,2.19787 -2.860879,2.49715 -0.835624,0.62492 -0.930889,0.97476 -0.264583,0.9716 0.254662,-0.001 2.725208,-0.59297 5.490104,-1.31503 z M 14.842596,157.19343 c 0.61792,-0.54571 3.684123,-3.36693 6.813783,-6.26939 3.12966,-2.90247 7.119041,-6.5934 8.865291,-8.20209 3.311158,-3.05031 5.678331,-5.24888 8.593607,-7.98153 0.948829,-0.88939 2.506979,-2.31814 3.462556,-3.175 0.955578,-0.85686 4.404228,-4.05824 7.663667,-7.11418 3.259439,-3.05594 6.942447,-6.50067 8.184461,-7.65495 2.516323,-2.33859 4.405974,-4.10839 10.205931,-9.55866 2.17719,-2.04592 5.744464,-5.37122 7.927277,-7.389542 2.182812,-2.018325 5.695156,-5.293655 7.805208,-7.278511 2.110052,-1.984857 5.314894,-4.969876 7.121872,-6.633376 1.806977,-1.6635 3.665712,-3.381733 4.130521,-3.818295 0.46481,-0.436563 2.14153,-1.983449 3.726045,-3.437525 1.584515,-1.454076 3.654845,-3.365183 4.600725,-4.246905 0.94589,-0.881722 2.42938,-2.251867 3.29666,-3.044767 0.86727,-0.7929 2.53804,-2.334605 3.71282,-3.426012 1.95469,-1.815965 6.38757,-5.919727 10.71648,-9.92085 0.94527,-0.873688 1.7787,-1.65032 1.85208,-1.725847 0.29607,-0.304729 10.54417,-9.714305 11.77509,-10.811622 2.99793,-2.672533 5.16907,-4.889281 4.97216,-5.076606 -0.11531,-0.109701 -1.51935,0.135877 -3.12008,0.545727 -3.00046,0.768237 -10.70644,2.618797 -21.56354,5.178395 -8.4081,1.982239 -9.57421,2.258861 -16.139583,3.82862 -3.128698,0.748061 -6.402917,1.519588 -7.276042,1.714505 -0.873125,0.194917 -2.837656,0.647017 -4.365625,1.004667 -1.527968,0.357649 -4.92125,1.146898 -7.540625,1.753886 -2.619375,0.606987 -5.714999,1.327989 -6.879166,1.602225 -1.164167,0.274237 -3.485885,0.809237 -5.159375,1.188889 -1.67349,0.379652 -5.245365,1.216018 -7.9375,1.858591 -2.692135,0.642573 -7.037916,1.656014 -9.657291,2.252091 -2.619375,0.596077 -6.012657,1.375855 -7.540625,1.73284 -1.527969,0.356985 -3.790157,0.881192 -5.027084,1.164905 -1.236927,0.283713 -5.820833,1.34483 -10.186458,2.358037 -4.365625,1.013207 -9.306718,2.15941 -10.980208,2.547118 -1.673489,0.387709 -3.19017,0.749302 -3.370402,0.803541 -0.424468,0.127741 -0.495794,88.223801 -0.07143,88.223801 0.145919,0 0.770879,-0.44648 1.3888,-0.99218 z m 73.692053,-7.12711 c -0.252964,-0.0662 -0.729214,-0.0686 -1.058333,-0.005 -0.329119,0.0633 -0.122147,0.11747 0.459936,0.12041 0.582083,0.003 0.851362,-0.0488 0.598397,-0.11507 z m 1.721743,0.008 c -0.179132,-0.0725 -0.536319,-0.0769 -0.79375,-0.01 -0.257431,0.0671 -0.110869,0.12638 0.325693,0.13177 0.436563,0.005 0.647188,-0.0495 0.468057,-0.12197 z m 1.317881,-0.002 c -0.181901,-0.0734 -0.479557,-0.0734 -0.661459,0 -0.181901,0.0734 -0.03307,0.13345 0.33073,0.13345 0.363802,0 0.51263,-0.0601 0.330729,-0.13345 z m 3.037196,0.0154 c -0.08792,-0.0879 -0.316122,-0.0973 -0.507118,-0.0209 -0.211067,0.0845 -0.148372,0.14716 0.159852,0.15986 0.278915,0.0115 0.435185,-0.0511 0.347266,-0.13897 z"
       id="path3" /><path
       style="display:inline;fill:#76562b;fill-opacity:1;stroke-width:1.5835"
       d="m 61.654308,165.88565 c 0.10105,-0.27208 2.349774,-2.64343 10.814454,-11.4042 3.30416,-3.41974 6.329551,-6.60303 6.72309,-7.07397 l 0.715525,-0.85626 8.504066,-0.0698 8.504067,-0.0698 0.223653,-1.19063 c 0.303185,-1.61401 1.922624,-9.0186 2.71972,-12.43542 0.356457,-1.52796 1.415657,-6.40953 2.353787,-10.84791 2.07254,-9.80538 4.41469,-20.58401 5.28935,-24.341669 0.35567,-1.527969 0.74676,-3.254375 0.8691,-3.836459 l 0.22244,-1.058333 18.37864,-0.06876 c 20.77316,-0.07772 19.04009,-0.2692 19.04009,2.103703 v 1.272347 l -17.39635,0.0027 -17.39636,0.0027 -1.82874,8.397811 c -1.00581,4.6188 -2.22202,10.18375 -2.70269,12.36656 -2.19295,9.95863 -3.83967,17.56623 -4.72486,21.82813 -0.52893,2.54661 -1.32459,6.14825 -1.76814,8.00364 l -0.806456,3.37344 h -9.216947 c -8.817563,0 -9.232504,0.0222 -9.575969,0.51258 -0.470201,0.6713 -2.994087,3.34769 -12.318493,13.06283 l -2.461051,2.56417 h -2.12506 c -1.168783,0 -2.085373,-0.10685 -2.036866,-0.23746 z M 56.920775,164.361 c -1.36806,-1.95415 -3.939834,-6.24184 -5.041733,-8.40564 -1.145033,-2.2485 -1.223007,-2.53391 -1.235599,-4.52267 -0.0124,-1.95898 0.05351,-2.22705 0.854543,-3.47535 1.453722,-2.26543 3.304874,-3.2747 5.962262,-3.25069 3.558395,0.0321 6.031548,1.99939 6.800226,5.40917 0.512958,2.27543 0.007,3.7774 -3.102833,9.21036 -1.515076,2.64691 -2.969812,5.03164 -3.232746,5.2994 -0.463555,0.47206 -0.494028,0.46403 -1.00412,-0.26458 z m 2.638915,-10.96757 c 1.113063,-1.18161 1.076332,-2.92815 -0.08423,-4.00521 -1.543242,-1.43221 -4.074651,-0.77263 -4.736986,1.23427 -0.377822,1.14481 -0.14724,2.04074 0.741584,2.88143 1.2408,1.1736 2.912695,1.12833 4.079635,-0.11049 z m 89.2123,-61.950974 c -1.02621,-1.200189 -3.27699,-4.901622 -4.78523,-7.869342 -1.45353,-2.860075 -1.54592,-3.153876 -1.53936,-4.894792 0.008,-2.104961 0.42719,-3.124528 1.9404,-4.718773 1.56153,-1.645154 2.76361,-2.1532 5.06408,-2.140284 1.48914,0.0084 2.24849,0.150024 3.0427,0.567643 3.2478,1.707786 4.68868,5.600613 3.32886,8.993599 -0.89551,2.234446 -5.92389,10.659274 -6.36201,10.659274 -0.0983,0 -0.40854,-0.268796 -0.68944,-0.597325 z m 2.72432,-10.919196 c 0.86002,-0.860015 0.92246,-1.028429 0.79629,-2.147809 -0.18095,-1.605344 -1.05462,-2.492368 -2.61114,-2.651037 -2.89069,-0.294672 -4.3627,2.881125 -2.2942,4.949625 0.63618,0.63618 1.00607,0.782408 1.97914,0.782408 1.01666,0 1.33714,-0.140415 2.12991,-0.933187 z"
       id="path2" /></g></svg>
